<svg width="300" height="150" viewBox="0 0 300 150" fill="none" xmlns="http://www.w3.org/2000/svg">
<g filter="url(#filter0_d_1032_3601)">
<path d="M11.5918 57.008C11.5918 51.824 12.9358 47.92 15.6238 45.296C18.3118 42.672 21.5118 41.36 25.2238 41.36C28.9998 41.36 34.1198 42 40.5838 43.28C47.0478 44.56 51.9118 45.232 55.1758 45.296C60.6158 44.272 65.7998 43.024 70.7278 41.552C71.2398 43.216 71.4958 45.296 71.4958 47.792C71.4958 52.976 69.9918 56.88 66.9838 59.504C64.0398 62.128 60.2638 63.44 55.6558 63.44C54.5038 63.44 52.9678 63.376 51.0478 63.248C47.5278 81.744 45.7678 92.08 45.7678 94.256C45.7678 100.464 46.7278 105.104 48.6478 108.176C44.8078 111.056 40.8078 112.496 36.6478 112.496C32.4878 112.496 29.5118 111.312 27.7198 108.944C25.9278 106.512 25.0318 102.928 25.0318 98.192C25.0318 93.392 26.8878 80.656 30.5998 59.984C23.3678 60.944 17.2878 62.032 12.3598 63.248C11.8478 61.648 11.5918 59.568 11.5918 57.008ZM69.8375 80.624C69.8375 68.464 73.2295 58.736 80.0135 51.44C86.7975 44.08 96.0775 40.4 107.854 40.4C111.63 40.4 114.318 41.168 115.917 42.704C117.582 44.176 118.414 46.48 118.414 49.616C118.414 50.064 118.35 50.928 118.222 52.208C120.59 50.288 123.214 49.328 126.094 49.328C129.998 49.328 133.326 51.088 136.078 54.608C138.894 58.064 140.302 63.088 140.302 69.68C140.302 76.272 139.246 82.32 137.134 87.824C135.022 93.328 132.206 97.84 128.686 101.36C125.23 104.88 121.262 107.6 116.781 109.52C112.366 111.44 107.79 112.4 103.054 112.4C92.8135 112.4 84.7175 109.488 78.7655 103.664C72.8135 97.776 69.8375 90.096 69.8375 80.624ZM117.742 85.136C113.646 80.144 111.598 74.768 111.598 69.008C111.598 63.248 112.878 58.608 115.438 55.088C114.286 54.896 113.134 54.8 111.982 54.8C107.438 54.8 103.502 56.176 100.174 58.928C93.9015 64.048 90.7655 71.152 90.7655 80.24C90.7655 85.424 91.9175 89.744 94.2215 93.2C96.5255 96.656 99.7255 98.384 103.822 98.384C106.958 98.384 109.806 97.168 112.366 94.736C114.99 92.24 116.782 89.04 117.742 85.136ZM147.541 94.352C147.541 90.704 148.405 84.272 150.133 75.056C151.861 65.84 152.917 60.016 153.301 57.584L148.213 47.312C156.341 42.704 163.253 40.4 168.949 40.4C171.765 40.4 173.877 41.36 175.285 43.28C180.597 41.424 185.493 40.496 189.973 40.496C198.293 40.496 204.757 43.216 209.365 48.656C213.973 54.032 216.277 60.752 216.277 68.816C216.277 79.44 212.373 89.2 204.565 98.096C200.789 102.384 195.797 105.84 189.589 108.464C183.445 111.088 176.853 112.4 169.813 112.4C162.773 112.4 157.301 110.864 153.397 107.792C149.493 104.656 147.541 100.176 147.541 94.352ZM167.893 98C169.237 98.256 170.741 98.384 172.405 98.384C179.381 98.384 184.821 95.888 188.725 90.896C192.629 85.84 194.581 79.632 194.581 72.272C194.581 66.32 193.237 61.584 190.549 58.064C187.861 54.544 183.989 52.784 178.933 52.784C178.165 52.784 176.885 52.912 175.093 53.168C174.645 56.432 173.461 63.728 171.541 75.056C169.685 86.32 168.469 93.968 167.893 98ZM218.713 80.624C218.713 68.464 222.105 58.736 228.889 51.44C235.673 44.08 244.953 40.4 256.729 40.4C260.505 40.4 263.193 41.168 264.792 42.704C266.457 44.176 267.289 46.48 267.289 49.616C267.289 50.064 267.225 50.928 267.097 52.208C269.465 50.288 272.089 49.328 274.969 49.328C278.873 49.328 282.201 51.088 284.953 54.608C287.769 58.064 289.177 63.088 289.177 69.68C289.177 76.272 288.121 82.32 286.009 87.824C283.897 93.328 281.081 97.84 277.561 101.36C274.105 104.88 270.137 107.6 265.656 109.52C261.241 111.44 256.665 112.4 251.929 112.4C241.689 112.4 233.593 109.488 227.641 103.664C221.689 97.776 218.713 90.096 218.713 80.624ZM266.617 85.136C262.521 80.144 260.473 74.768 260.473 69.008C260.473 63.248 261.753 58.608 264.312 55.088C263.161 54.896 262.009 54.8 260.857 54.8C256.313 54.8 252.377 56.176 249.049 58.928C242.777 64.048 239.641 71.152 239.641 80.24C239.641 85.424 240.793 89.744 243.097 93.2C245.401 96.656 248.601 98.384 252.697 98.384C255.833 98.384 258.681 97.168 261.241 94.736C263.865 92.24 265.657 89.04 266.617 85.136Z" fill="#E5E5E5"/>
</g>
<defs>
<filter id="filter0_d_1032_3601" x="8.5918" y="38.4" width="285.585" height="80.0959" filterUnits="userSpaceOnUse" color-interpolation-filters="sRGB">
<feFlood flood-opacity="0" result="BackgroundImageFix"/>
<feColorMatrix in="SourceAlpha" type="matrix" values="0 0 0 0 0 0 0 0 0 0 0 0 0 0 0 0 0 0 127 0" result="hardAlpha"/>
<feOffset dx="1" dy="2"/>
<feGaussianBlur stdDeviation="2"/>
<feComposite in2="hardAlpha" operator="out"/>
<feColorMatrix type="matrix" values="0 0 0 0 0 0 0 0 0 0 0 0 0 0 0 0 0 0 0.5 0"/>
<feBlend mode="normal" in2="BackgroundImageFix" result="effect1_dropShadow_1032_3601"/>
<feBlend mode="normal" in="SourceGraphic" in2="effect1_dropShadow_1032_3601" result="shape"/>
</filter>
</defs>
</svg>
